<?xml version="1.0" standalone="no"?>
<!DOCTYPE svg PUBLIC "-//W3C//DTD SVG 20010904//EN"
 "http://www.w3.org/TR/2001/REC-SVG-20010904/DTD/svg10.dtd">
<svg version="1.0" xmlns="http://www.w3.org/2000/svg"
 width="70%" height="70%" viewBox="0 0 596.000000 596.000000"
 preserveAspectRatio="xMidYMid meet">

<g transform="translate(0.000000,596.000000) scale(0.100000,-0.100000)"
fill="#000000" stroke="none">
<path d="M2737 5450 c-877 -79 -1645 -604 -2027 -1384 -154 -316 -235 -628
-256 -988 l-6 -118 251 0 251 0 0 69 c0 39 7 123 15 188 119 905 824 1610
1728 1728 626 81 1271 -149 1703 -608 133 -142 169 -127 -296 -127 l-400 0 0
-250 0 -251 658 3 657 3 54 30 c58 32 103 90 121 155 6 21 10 286 10 673 l0
637 -250 0 -250 0 0 -236 0 -236 -72 67 c-358 329 -831 553 -1320 625 -154 23
-429 33 -571 20z"/>
<path d="M4950 2891 c0 -97 -26 -286 -57 -411 -175 -718 -745 -1288 -1463
-1463 -606 -149 -1242 -7 -1731 387 -97 78 -299 279 -299 298 0 5 180 8 400 8
l400 0 0 250 0 251 -657 -3 -658 -3 -54 -30 c-58 -32 -103 -90 -121 -155 -6
-21 -10 -286 -10 -672 l0 -638 250 0 250 0 0 236 0 236 73 -67 c534 -492 1294
-729 2015 -630 779 108 1455 567 1839 1250 190 336 293 696 319 1113 l7 112
-252 0 -251 0 0 -69z"/>
</g>
</svg>
